#!OML:ASF H:\ManfredETheater\Project 1\Capture day 1\Session 1\subject.ASF
:FULLY-SPECIFIED
:DEGREES
62
root 2.32209 16.8745 19.7244 -108.725 -22.8873 -195.351
lowerback 36.6956 -3.1617 9.25107
upperback 8.25564 -2.01797 -0.22227
thorax -9.11683 -1.52756 -4.19557
lowerneck -8.24887 -5.13537 -1.81808
upperneck -5.09772 -7.41044 -5.13643
head -0.361004 -3.96235 -1.43399
rclavicle -3.49861e-014 5.96354e-015
rhumerus 27.541 7.08417 -59.3535
rradius 106.241
rwrist -0.253723
rhand -24.2942 6.59332
rfingers 7.12502
rthumb 2.19321 -23.3751
lclavicle -3.49861e-014 5.96354e-015
lhumerus 46.0684 -7.56659 72.691
lradius 62.5594
lwrist 0.635392
lhand -35.3606 -9.4333
lfingers 7.12502
lthumb -8.49283 20.3759
rfemur -78.6698 -10.6695 16.0364
rtibia 48.9737
rfoot -15.3808 -14.5407
rtoes -37.1954
lfemur -26.9299 -1.18321 -5.74134
ltibia 59.4064
lfoot 3.96387 -6.25804
ltoes 4.28671
63
root 2.30209 17.0313 19.2407 -106.679 -22.6628 -195.873
lowerback 36.7217 -3.04059 8.79583
upperback 8.29449 -2.02643 -0.447834
thorax -9.10022 -1.50619 -4.20254
lowerneck -7.86784 -5.22437 -1.78438
upperneck -5.47747 -7.58825 -5.32098
head -0.554263 -4.04576 -1.47961
rclavicle 2.70347e-014 -7.95139e-016
rhumerus 29.8747 5.7373 -58.9453
rradius 104.569
rwrist 0.0909182
rhand -24.9256 6.49652
rfingers 7.12502
rthumb 1.58339 -23.4774
lclavicle 2.70347e-014 -7.95139e-016
lhumerus 49.0651 -7.38986 71.9542
lradius 62.1262
lwrist 0.703021
lhand -35.495 -9.67704
lfingers 7.12502
lthumb -8.62251 20.1269
rfemur -77.5197 -10.5359 15.7846
rtibia 45.8949
rfoot -13.7963 -13.5274
rtoes -37.1153
lfemur -27.425 -0.895044 -5.30129
ltibia 61.8408
lfoot 3.94849 -5.60571
ltoes 5.37688
64
root 2.27732 17.1927 18.7476 -104.577 -22.4111 -196.373
lowerback 36.7621 -2.92382 8.30764
upperback 8.31892 -2.04903 -0.67597
thorax -9.10581 -1.49156 -4.18817
lowerneck -7.51447 -5.31656 -1.72968
upperneck -5.84185 -7.77251 -5.51946
head -0.740837 -4.13295 -1.53456
rclavicle 2.22639e-014 2.46493e-014
rhumerus 31.9948 4.40797 -58.6352
rradius 102.913
rwrist 0.351882
rhand -25.6813 6.26571
rfingers 7.12502
rthumb 0.853551 -23.7123
lclavicle 2.22639e-014 2.46493e-014
lhumerus 52.0648 -7.16798 71.1346
lradius 61.7212
lwrist 0.633286
lhand -35.6767 -10.0364
lfingers 7.12502
lthumb -8.79778 19.7602
rfemur -76.363 -10.4315 15.5234
rtibia 42.5849
rfoot -11.8593 -12.3646
rtoes -36.8149
lfemur -27.8632 -0.579466 -4.84827
ltibia 64.0079
lfoot 3.94935 -4.55865
ltoes 6.53428
65
root 2.24769 17.3566 18.2453 -102.417 -22.1462 -196.845
lowerback 36.8238 -2.81125 7.80281
upperback 8.31676 -2.07676 -0.90096
thorax -9.14803 -1.47996 -4.15805
lowerneck -7.20066 -5.41851 -1.67035
upperneck -6.17751 -7.96703 -5.70064
head -0.913087 -4.2256 -1.58682
rclavicle 4.92986e-014 1.03368e-014
rhumerus 33.8882 3.09433 -58.3472
rradius 101.315
rwrist 0.531551
rhand -26.5681 5.98072
rfingers 7.12502
rthumb -0.00291367 -23.999
lclavicle 4.92986e-014 1.03368e-014
lhumerus 55.0862 -6.91249 70.2624
lradius 61.2982
lwrist 0.397789
lhand -35.8935 -10.4665
lfingers 7.12502
lthumb -9.00704 19.3212
rfemur -75.2247 -10.3657 15.2702
rtibia 39.0731
rfoot -9.51592 -11.0957
rtoes -36.1773
lfemur -28.247 -0.275892 -4.37252
ltibia 65.8684
lfoot 4.05954 -3.28499
ltoes 7.93907
66
root 2.21252 17.5199 17.7341 -100.199 -21.8921 -197.304
lowerback 36.9027 -2.70735 7.31259
upperback 8.28898 -2.10392 -1.1147
thorax -9.22309 -1.46883 -4.12224
lowerneck -6.93604 -5.53851 -1.59709
upperneck -6.48583 -8.18235 -5.85484
head -1.07002 -4.32961 -1.63505
rclavicle -1.59028e-015 -1.98785e-014
rhumerus 35.5548 1.77219 -58.0063
rradius 99.7988
rwrist 0.664638
rhand -27.5372 5.73692
rfingers 7.12502
rthumb -0.93892 -24.2408
lclavicle -1.59028e-015 -1.98785e-014
lhumerus 58.1029 -6.64535 69.3705
lradius 60.8731
lwrist -0.00644885
lhand -36.1197 -10.8863
lfingers 7.12502
lthumb -9.22531 18.8919
rfemur -74.1156 -10.3558 15.0314
rtibia 35.4103
rfoot -6.72608 -9.90568
rtoes -35.1061
lfemur -28.588 -0.00672724 -3.86128
ltibia 67.4007
lfoot 4.31931 -2.0181
ltoes 9.36453
67
root 2.1717 17.6778 17.2153 -97.9264 -21.6502 -197.76
lowerback 36.9963 -2.62658 6.85015
upperback 8.23057 -2.14453 -1.32527
thorax -9.33787 -1.46459 -4.0909
lowerneck -6.70462 -5.67537 -1.52821
upperneck -6.78048 -8.41389 -5.94912
head -1.21592 -4.44168 -1.66465
rclavicle 4.29375e-014 -9.54166e-015
rhumerus 37.0003 0.450459 -57.5796
rradius 98.3732
rwrist 0.813769
rhand -28.5566 5.66034
rfingers 7.12502
rthumb -1.92346 -24.3107
lclavicle 4.29375e-014 -9.54166e-015
lhumerus 61.1168 -6.36431 68.4612
lradius 60.4041
lwrist -0.538917
lhand -36.3286 -11.2189
lfingers 7.12502
lthumb -9.42686 18.5503
rfemur -73.0512 -10.4108 14.8072
rtibia 31.6828
rfoot -3.54268 -9.0844
rtoes -33.9167
lfemur -28.8851 0.225213 -3.31825
ltibia 68.594
lfoot 4.77721 -0.880064
ltoes 10.8186
68
root 2.12537 17.826 16.6906 -95.6025 -21.4204 -198.216
lowerback 37.0871 -2.57302 6.42277
upperback 8.14763 -2.20432 -1.53908
thorax -9.48066 -1.4695 -4.07313
lowerneck -6.52713 -5.82294 -1.45819
upperneck -7.051 -8.65146 -5.98634
head -1.34365 -4.55758 -1.67817
rclavicle 1.90833e-014 -4.13472e-014
rhumerus 38.2416 -0.877066 -57.0469
rradius 97.0438
rwrist 1.03855
rhand -29.5669 5.81272
rfingers 7.12502
rthumb -2.89923 -24.1473
lclavicle 1.90833e-014 -4.13472e-014
lhumerus 64.1163 -6.0767 67.5395
lradius 59.8827
lwrist -1.14312
lhand -36.4948 -11.4144
lfingers 7.12502
lthumb -9.58725 18.3475
rfemur -72.1791 -10.5388 14.6298
rtibia 28.2489
rfoot -0.284181 -8.84359
rtoes -32.9531
lfemur -29.1541 0.442628 -2.74723
ltibia 69.5136
lfoot 5.38921 0.0363438
ltoes 12.2407
69
root 2.07392 17.96 16.1624 -93.2335 -21.1805 -198.683
lowerback 37.1545 -2.54596 6.01723
upperback 8.04188 -2.29013 -1.76346
thorax -9.6435 -1.48636 -4.06777
lowerneck -6.40542 -5.96983 -1.37651
upperneck -7.28649 -8.88081 -5.99617
head -1.45054 -4.67076 -1.68701
rclavicle 5.56597e-014 -8.74653e-015
rhumerus 39.2826 -2.21439 -56.3888
rradius 95.81
rwrist 1.42509
rhand -30.5163 6.18695
rfingers 7.12502
rthumb -3.81609 -23.7586
lclavicle 5.56597e-014 -8.74653e-015
lhumerus 67.0785 -5.79888 66.6106
lradius 59.2967
lwrist -1.75265
lhand -36.6076 -11.468
lfingers 7.12502
lthumb -9.69603 18.2888
rfemur -71.4834 -10.7718 14.5549
rtibia 25.1368
rfoot 2.78644 -9.20978
rtoes -32.3147
lfemur -29.3698 0.630843 -2.17506
ltibia 70.1098
lfoot 6.15174 0.747706
ltoes 13.5729
70
root 2.02246 18.0492 15.671 -90.838 -20.8782 -199.155
lowerback 37.1917 -2.53656 5.58438
upperback 7.92426 -2.41416 -2.0126
thorax -9.81339 -1.52005 -4.05952
lowerneck -6.35433 -6.10889 -1.28732
upperneck -7.49345 -9.09293 -5.98508
head -1.53579 -4.77719 -1.69311
rclavicle -9.54166e-015 -2.46493e-014
rhumerus 40.1501 -3.54371 -55.6117
rradius 94.6659
rwrist 1.99014
rhand -31.3927 6.75677
rfingers 7.12502
rthumb -4.66238 -23.1719
lclavicle -9.54166e-015 -2.46493e-014
lhumerus 69.9804 -5.5293 65.6711
lradius 58.6587
lwrist -2.28304
lhand -36.6518 -11.3849
lfingers 7.12502
lthumb -9.73866 18.3699
rfemur -71.2217 -11.1922 14.6587
rtibia 22.6779
rfoot 5.38117 -9.93379
rtoes -32.1392
lfemur -29.5487 0.813618 -1.60572
ltibia 70.566
lfoot 6.93347 1.26508
ltoes 15.1112
71
root 1.96479 18.1471 15.1444 -88.4476 -20.5406 -199.608
lowerback 37.2087 -2.53991 5.13269
upperback 7.79049 -2.56542 -2.27311
thorax -9.99642 -1.56616 -4.04233
lowerneck -6.37124 -6.23143 -1.20819
upperneck -7.65434 -9.27567 -5.97269
head -1.59379 -4.87059 -1.70022
rclavicle 9.54166e-015 -1.74931e-014
rhumerus 40.8493 -4.83596 -54.7111
rradius 93.6077
rwrist 2.74356
rhand -32.189 7.43151
rfingers 7.12502
rthumb -5.4312 -22.4789
lclavicle 9.54166e-015 -1.74931e-014
lhumerus 72.7995 -5.2701 64.723
lradius 57.9605
lwrist -2.67992
lhand -36.6414 -11.2386
lfingers 7.12502
lthumb -9.72866 18.5167
rfemur -71.2318 -11.7476 15.1502
rtibia 21.0673
rfoot 7.06119 -10.5878
rtoes -32.5555
lfemur -29.6158 0.97942 -1.11672
ltibia 70.6029
lfoot 7.92187 1.72811
ltoes 16.5981
72
root 1.90609 18.2258 14.6209 -86.0769 -20.1519 -200.031
lowerback 37.1956 -2.55116 4.6449
upperback 7.65061 -2.74715 -2.54715
thorax -10.1775 -1.62574 -4.00831
lowerneck -6.48709 -6.3179 -1.13421
upperneck -7.75539 -9.40621 -6.01198
head -1.61729 -4.94074 -1.72774
rclavicle 3.33958e-014 6.36111e-014
rhumerus 41.4087 -6.07644 -53.6905
rradius 92.6299
rwrist 3.64949
rhand -32.9245 8.11296
rfingers 7.12502
rthumb -6.14129 -21.778
lclavicle 3.33958e-014 6.36111e-014
lhumerus 75.5051 -5.0162 63.765
lradius 57.2319
lwrist -2.91598
lhand -36.5882 -11.0914
lfingers 7.12502
lthumb -9.67738 18.6663
rfemur -71.7953 -12.4912 16.1138
rtibia 20.6453
rfoot 7.86887 -10.7633
rtoes -33.5482
lfemur -29.611 1.13655 -0.679593
ltibia 70.4213
lfoot 8.94651 2.14792
ltoes 17.9927
73
root 1.84785 18.2862 14.1013 -83.7594 -19.7381 -200.407
lowerback 37.1805 -2.56649 4.13002
upperback 7.5006 -2.94848 -2.8198
thorax -10.3684 -1.69429 -3.94958
lowerneck -6.66004 -6.37837 -1.12267
upperneck -7.81862 -9.49631 -6.06935
head -1.61592 -4.99126 -1.75362
rclavicle 6.36111e-014 7.95139e-015
rhumerus 41.8374 -7.23588 -52.5449
rradius 91.7273
rwrist 4.654
rhand -33.6361 8.7068
rfingers 7.12502
rthumb -6.82831 -21.1631
lclavicle 6.36111e-014 7.95139e-015
lhumerus 78.0639 -4.77107 62.8086
lradius 56.4999
lwrist -3.01128
lhand -36.514 -10.9624
lfingers 7.12502
lthumb -9.6058 18.7986
rfemur -72.7627 -13.3742 17.5778
rtibia 21.195
rfoot 8.05633 -10.3157
rtoes -34.9155
lfemur -29.5074 1.27898 -0.269529
ltibia 70.0035
lfoot 10.0625 2.58572
ltoes 19.4206
74
root 1.79109 18.3295 13.5867 -81.4928 -19.3339 -200.733
lowerback 37.1428 -2.58686 3.61434
upperback 7.34839 -3.15973 -3.07665
thorax -10.5514 -1.76743 -3.86909
lowerneck -6.86784 -6.41837 -1.1968
upperneck -7.87637 -9.55535 -6.13612
head -1.60244 -5.02589 -1.76983
rclavicle -1.11319e-014 2.22639e-014
rhumerus 42.1642 -8.30331 -51.2782
rradius 90.8878
rwrist 5.6876
rhand -34.3072 9.15338
rfingers 7.12502
rthumb -7.47614 -20.6945
lclavicle -1.11319e-014 2.22639e-014
lhumerus 80.4721 -4.52869 61.8665
lradius 55.773
lwrist -3.02716
lhand -36.4304 -10.897
lfingers 7.12502
lthumb -9.52508 18.8677
rfemur -74.1768 -14.251 19.3152
rtibia 22.9282
rfoot 7.63989 -9.39423
rtoes -36.2818
lfemur -29.3539 1.45073 0.148658
ltibia 69.4637
lfoot 11.1574 2.99835
ltoes 20.5771
